<svg width="15" height="15" viewBox="0 0 15 15" fill="none" xmlns="http://www.w3.org/2000/svg">
<g clip-path="url(#clip0_17_434)">
<path d="M3.49803 1.29198C4.18065 1.17772 4.86912 1.23632 5.50779 1.44725L6.96677 3.71775L4.75779 5.92673C4.71385 5.97067 4.68748 6.0322 4.69041 6.09665C4.69334 6.1611 4.71971 6.21969 4.76658 6.26364L8.04782 9.3105C8.13278 9.3896 8.26461 9.39546 8.35543 9.31929C8.44625 9.24312 8.46676 9.11421 8.40524 9.0146L6.63571 6.14059L9.29293 3.92576C9.3691 3.86424 9.39547 3.75877 9.36324 3.66795L8.69528 1.81053C9.53023 1.32128 10.5234 1.13085 11.499 1.29491C13.5205 1.62889 14.9999 3.37498 14.9999 5.42282V5.59274C14.9999 6.80856 14.496 7.97164 13.6054 8.80074L8.31149 13.7431C8.09176 13.9482 7.80173 14.0624 7.49997 14.0624C7.19821 14.0624 6.90817 13.9482 6.68845 13.7431L1.39453 8.80074C0.503904 7.97164 0 6.80856 0 5.59274V5.42282C0 3.37498 1.47949 1.62889 3.49803 1.29198Z" fill="#56529E"/>
</g>
<defs>
<clipPath id="clip0_17_434">
<rect width="14.3019" height="14.3019" fill="white" transform="scale(1.0488)"/>
</clipPath>
</defs>
</svg>
