<svg width="17" height="13" viewBox="0 0 17 13" fill="none" xmlns="http://www.w3.org/2000/svg">
<path d="M8.35802 12.0688C12.9736 12.0688 16.7143 9.36781 16.7143 6.03439C16.7143 2.70097 12.9736 0 8.35802 0C3.74246 0 0.00169587 2.70097 0.00169587 6.03439C0.00169587 7.3428 0.579457 8.55258 1.55871 9.54187C1.49669 10.2527 1.1866 10.8851 0.860177 11.3667C0.680647 11.6336 0.497852 11.8483 0.364021 11.9933C0.295473 12.0659 0.243246 12.121 0.204076 12.1587C0.18449 12.1761 0.171434 12.1906 0.161641 12.1993L0.151849 12.208C0.00169587 12.3415 -0.0407386 12.5388 0.0408661 12.7128C0.122471 12.8869 0.311794 13 0.523966 13C1.46079 13 2.40414 12.7418 3.18754 12.4401C3.93504 12.15 4.57156 11.8048 4.96 11.5524C5.99801 11.886 7.147 12.0717 8.35802 12.0717V12.0688ZM4.17986 5.10602C4.45689 5.10602 4.72257 5.20383 4.91846 5.37793C5.11435 5.55203 5.2244 5.78817 5.2244 6.03439C5.2244 6.2806 5.11435 6.51674 4.91846 6.69084C4.72257 6.86494 4.45689 6.96275 4.17986 6.96275C3.90283 6.96275 3.63714 6.86494 3.44126 6.69084C3.24537 6.51674 3.13532 6.2806 3.13532 6.03439C3.13532 5.78817 3.24537 5.55203 3.44126 5.37793C3.63714 5.20383 3.90283 5.10602 4.17986 5.10602ZM8.35802 5.10602C8.63505 5.10602 8.90073 5.20383 9.09662 5.37793C9.29251 5.55203 9.40256 5.78817 9.40256 6.03439C9.40256 6.2806 9.29251 6.51674 9.09662 6.69084C8.90073 6.86494 8.63505 6.96275 8.35802 6.96275C8.08099 6.96275 7.81531 6.86494 7.61942 6.69084C7.42353 6.51674 7.31348 6.2806 7.31348 6.03439C7.31348 5.78817 7.42353 5.55203 7.61942 5.37793C7.81531 5.20383 8.08099 5.10602 8.35802 5.10602ZM11.4916 6.03439C11.4916 5.78817 11.6017 5.55203 11.7976 5.37793C11.9935 5.20383 12.2591 5.10602 12.5362 5.10602C12.8132 5.10602 13.0789 5.20383 13.2748 5.37793C13.4707 5.55203 13.5807 5.78817 13.5807 6.03439C13.5807 6.2806 13.4707 6.51674 13.2748 6.69084C13.0789 6.86494 12.8132 6.96275 12.5362 6.96275C12.2591 6.96275 11.9935 6.86494 11.7976 6.69084C11.6017 6.51674 11.4916 6.2806 11.4916 6.03439Z" fill="#56529E"/>
</svg>
