<svg width="36" height="36" viewBox="0 0 36 36" fill="none" xmlns="http://www.w3.org/2000/svg">
<path d="M18 5.625C14.8934 5.625 12.375 8.1434 12.375 11.25C12.375 14.3566 14.8934 16.875 18 16.875C21.1066 16.875 23.625 14.3566 23.625 11.25C23.625 8.1434 21.1066 5.625 18 5.625Z" fill="#EE3A5A"/>
<path d="M12 19.875C8.8934 19.875 6.375 22.3934 6.375 25.5V27.2824C6.375 28.4123 7.19383 29.3756 8.30891 29.5577C14.7271 30.6056 21.2729 30.6056 27.6911 29.5577C28.8062 29.3756 29.625 28.4123 29.625 27.2824V25.5C29.625 22.3934 27.1066 19.875 24 19.875H23.4887C23.212 19.875 22.937 19.9188 22.6739 20.0047L21.3756 20.4286C19.1822 21.1448 16.8178 21.1448 14.6244 20.4286L13.3261 20.0047C13.063 19.9188 12.788 19.875 12.5113 19.875H12Z" fill="#EE3A5A"/>
</svg>
