<svg width="15" height="15" viewBox="0 0 15 15" fill="none" xmlns="http://www.w3.org/2000/svg">
<g clip-path="url(#clip0_17_433)">
<path d="M1.39453 8.80069L6.68845 13.7431C6.90817 13.9481 7.19821 14.0624 7.49997 14.0624C7.80173 14.0624 8.09176 13.9481 8.31149 13.7431L13.6054 8.80069C14.496 7.97159 14.9999 6.80851 14.9999 5.59269V5.42277C14.9999 3.37493 13.5205 1.62884 11.5019 1.29193C10.166 1.06928 8.8066 1.5058 7.85153 2.46087L7.49997 2.81243L7.14841 2.46087C6.19333 1.5058 4.83396 1.06928 3.49803 1.29193C1.47949 1.62884 0 3.37493 0 5.42277V5.59269C0 6.80851 0.503904 7.97159 1.39453 8.80069Z" fill="#56529E"/>
</g>
<defs>
<clipPath id="clip0_17_433">
<rect width="14.3019" height="14.3019" fill="white" transform="scale(1.0488)"/>
</clipPath>
</defs>
</svg>
