<svg width="14" height="13" viewBox="0 0 14 13" fill="none" xmlns="http://www.w3.org/2000/svg">
<path d="M8.39453 0.0818309C8.08008 0.229815 7.875 0.563506 7.875 0.929114V2.78617H4.8125C2.15469 2.78617 0 5.07268 0 7.89309C0 11.1807 2.22852 12.6489 2.73984 12.9449C2.8082 12.9855 2.88477 13 2.96133 13C3.25938 13 3.5 12.7418 3.5 12.4284C3.5 12.2107 3.38242 12.0105 3.23203 11.8626C2.975 11.6043 2.625 11.0965 2.625 10.2144C2.625 8.67653 3.80078 7.42882 5.25 7.42882H7.875V9.28588C7.875 9.65149 8.07734 9.98518 8.39453 10.1332C8.71172 10.2811 9.07812 10.2202 9.33516 9.97647L13.7102 5.79809C13.8934 5.62109 14 5.37155 14 5.1075C14 4.84345 13.8961 4.5939 13.7102 4.4169L9.33516 0.23852C9.07812 -0.00812037 8.70898 -0.0690552 8.39453 0.0818309Z" fill="#56529E"/>
</svg>
