<svg width="35" height="36" viewBox="0 0 35 36" fill="none" xmlns="http://www.w3.org/2000/svg">
<path d="M10.63 7.36148C15.2014 6.95275 19.7986 6.95275 24.3699 7.36148L26.5723 7.5584C28.0385 7.6895 29.2942 8.589 29.9449 9.87567C30.0281 10.0403 29.9657 10.2396 29.8123 10.3372L20.6745 16.1556C18.7147 17.4035 16.2435 17.4297 14.2591 16.2236L5.06021 10.6326C4.9116 10.5422 4.84338 10.3563 4.91036 10.1926C5.50558 8.73828 6.8438 7.70001 8.42759 7.5584L10.63 7.36148Z" fill="#56529E"/>
<path d="M4.90287 13.1504C4.67542 13.0121 4.38521 13.1609 4.3587 13.4313C3.98867 17.2047 4.07822 21.0139 4.62737 24.7701C4.91687 26.7502 6.48809 28.2683 8.42759 28.4417L10.63 28.6386C15.2014 29.0474 19.7986 29.0474 24.3699 28.6386L26.5723 28.4417C28.5118 28.2683 30.0831 26.7502 30.3726 24.7701C30.9377 20.9044 31.0161 16.9827 30.6077 13.1015C30.5791 12.8292 30.2839 12.6832 30.0575 12.8273L21.8259 18.0687C19.1744 19.757 15.831 19.7924 13.1463 18.1607L4.90287 13.1504Z" fill="#56529E"/>
</svg>
