<svg width="43" height="38" viewBox="0 0 43 38" fill="none" xmlns="http://www.w3.org/2000/svg">
<path d="M22.4163 4.17071C21.8192 4.00853 21.1808 4.00853 20.5837 4.17071L15.2342 5.62368C12.4852 6.37036 9.87443 7.46814 7.48472 8.88222C5.96568 9.7811 6.68571 11.875 8.51385 11.875H34.4862C36.3143 11.875 37.0344 9.7811 35.5153 8.88222C33.1256 7.46814 30.5148 6.37036 27.7658 5.62368L22.4163 4.17071Z" fill="#56529E"/>
<path d="M7.61456 33.25C7.61456 32.5942 8.21618 32.0625 8.95831 32.0625H34.0416C34.7838 32.0625 35.3854 32.5942 35.3854 33.25C35.3854 33.9059 34.7838 34.4375 34.0416 34.4375H8.95831C8.21618 34.4375 7.61456 33.9059 7.61456 33.25Z" fill="#56529E"/>
<path d="M11.1979 26.9167C11.1979 27.5725 11.7995 28.1042 12.5416 28.1042C13.2838 28.1042 13.8854 27.5725 13.8854 26.9167L13.8854 17.4167C13.8854 16.7609 13.2838 16.2292 12.5416 16.2292C11.7995 16.2292 11.1979 16.7609 11.1979 17.4167V26.9167Z" fill="#56529E"/>
<path d="M21.5 28.1042C20.7578 28.1042 20.1562 27.5725 20.1562 26.9167L20.1562 17.4167C20.1562 16.7609 20.7578 16.2292 21.5 16.2292C22.2421 16.2292 22.8437 16.7609 22.8437 17.4167V26.9167C22.8437 27.5725 22.2421 28.1042 21.5 28.1042Z" fill="#56529E"/>
<path d="M29.1146 26.9167C29.1146 27.5725 29.7162 28.1042 30.4583 28.1042C31.2004 28.1042 31.8021 27.5725 31.8021 26.9167V17.4167C31.8021 16.7609 31.2004 16.2292 30.4583 16.2292C29.7162 16.2292 29.1146 16.7609 29.1146 17.4167V26.9167Z" fill="#56529E"/>
</svg>
