<svg width="40" height="38" viewBox="0 0 40 38" fill="none" xmlns="http://www.w3.org/2000/svg">
<path d="M8.33361 15.6125C11.5276 22.2212 17.211 27.4754 24.2769 30.3239L25.4095 30.8033C28.0009 31.9001 31.0471 31.0668 32.6277 28.8288L34.1078 26.7329C34.5891 26.0515 34.4425 25.1337 33.7703 24.6185L28.7505 20.7713C28.0132 20.2062 26.929 20.3378 26.365 21.0609L24.8121 23.0516C20.8274 21.1843 17.5924 18.1109 15.6268 14.3255L17.7222 12.8502C18.4833 12.3144 18.6218 11.2844 18.027 10.584L13.9772 5.81508C13.435 5.17656 12.4692 5.03727 11.7519 5.49417L9.53048 6.9092C7.15991 8.41923 6.28761 11.3371 7.46883 13.8054L8.33231 15.6098L8.33361 15.6125Z" fill="#56529E"/>
</svg>
