<svg width="34" height="28" viewBox="0 0 34 28" fill="none" xmlns="http://www.w3.org/2000/svg">
<path d="M26.8389 21.1241L27.1759 20.8197L26.9136 20.449C25.3372 18.222 22.4149 16.7667 19.125 16.7667H14.875C11.5851 16.7667 8.66284 18.222 7.08646 20.449L6.82444 20.8192L7.16063 21.1236C9.59916 23.3317 13.111 24.7008 17 24.7008C20.8896 24.7008 24.401 23.326 26.8389 21.1241ZM0.511438 13.8225C0.511438 10.3304 2.21683 6.95371 5.30184 4.44533C8.38974 1.9346 12.5967 0.511438 17 0.511438C21.4034 0.511438 25.6103 1.9346 28.6982 4.44533C31.7832 6.95371 33.4886 10.3304 33.4886 13.8225C33.4886 17.3146 31.7832 20.6913 28.6982 23.1996C25.6103 25.7104 21.4034 27.1335 17 27.1335C12.5967 27.1335 8.38974 25.7104 5.30184 23.1996C2.21683 20.6913 0.511438 17.3146 0.511438 13.8225ZM17 15.1978C18.3734 15.1978 19.7066 14.7551 20.7035 13.9446C21.7033 13.1317 22.2927 12.0037 22.2927 10.7988C22.2927 9.59394 21.7033 8.46597 20.7035 7.65306C19.7066 6.84251 18.3734 6.3998 17 6.3998C15.6266 6.3998 14.2934 6.84251 13.2965 7.65306C12.2967 8.46597 11.7073 9.59394 11.7073 10.7988C11.7073 12.0037 12.2967 13.1317 13.2965 13.9446C14.2934 14.7551 15.6266 15.1978 17 15.1978Z" fill="#56529E" stroke="#767676"/>
</svg>
